<?xml version="1.0" encoding="utf-8"?>
<!-- Generator: Adobe Illustrator 20.1.0, SVG Export Plug-In . SVG Version: 6.00 Build 0)  -->
<svg version="1.1" id="Layer_1" xmlns="http://www.w3.org/2000/svg" xmlns:xlink="http://www.w3.org/1999/xlink" x="0px" y="0px"
	 viewBox="0 0 1630 617" style="enable-background:new 0 0 1630 617;" xml:space="preserve">
<g>
	<path fill="#f1f1f1" d="M16.1,596.7h86.5l13.9-129h65.3l12.2,129h101.2l-66.9-582H82.2L16.1,596.7L16.1,596.7z M126.3,379.6l22.9-229.4h2.4
		l21.2,229.4H126.3L126.3,379.6z M304.4,596.7H426c68.6,0,119.2-39.2,119.2-113.5V126.5c0-71-50.6-111.8-117.6-111.8H304.4V596.7
		L304.4,596.7z M404.8,502.8V107.7h13.1c20.4,0,26.9,12.2,26.9,28.6V471c0,18.8-5.7,31.8-26.9,31.8H404.8L404.8,502.8z M612.1,598.3
		h100.4l32.7-355.1h4.1l31.8,355.1h92.2l68.6-583.7H857L831.7,342h-2.4L799.9,14.7H698.7l-29.4,330.6h-1.6L640.7,14.7h-98.8
		L612.1,598.3L612.1,598.3z M951.5,596.7h195.9v-93.9h-96.3V345.3h75.9v-94.7h-75.9V107.7h94.7V14.7H951.5V596.7L951.5,596.7z
		 M1159,596.7h195.9v-93.9h-96.3V345.3h75.9v-94.7h-75.9V107.7h94.7V14.7H1159V596.7L1159,596.7z M1367.1,596.7h100.4V395.9
		l17.1-57.1l35.9,258H1621l-62.9-359.2l61.2-222.9H1519l-51.4,240v-240h-100.4V596.7L1367.1,596.7z"/>
</g>
</svg>
