<svg xmlns="http://www.w3.org/2000/svg" viewBox="0 0 512 512">
    <path fill="#0085ff" d="M105 0h302c57.928.155 104.845 47.072 105 104.996V407c-.155 57.926-47.072 104.844-104.996 104.998L105 512C47.074 511.844.156 464.926.002 407.003L0 105C.156 47.072 47.074.155 104.997 0H105z"/><path fill="#fff" fill-rule="nonzero" d="M173.234 144.311c33.5 25.237 69.538 76.397 82.765 103.853 13.228-27.456 49.267-78.616 82.767-103.853 24.177-18.205 63.343-32.294 63.343 12.534 0 8.949-5.115 75.209-8.117 85.969-10.429 37.393-48.441 46.931-82.251 41.159 59.1 10.091 74.133 43.513 41.664 76.936-61.663 63.479-88.629-15.927-95.533-36.273-1.991-5.857-1.708-5.991-3.745 0-6.905 20.346-33.869 99.752-95.531 36.273-32.47-33.423-17.437-66.845 41.663-76.936-33.81 5.772-71.822-3.766-82.251-41.159-3.002-10.76-8.117-77.02-8.117-85.969 0-44.828 39.172-30.739 63.343-12.534z"/>
</svg>