<svg role="img" aria-hidden="true" focusable="false" viewBox="-30 -30 330 330" width="330px" height="330px"
    stroke="none" stroke-width="0" fill="#0066ff" xmlns="http://www.w3.org/2000/svg">
    <polygon points="0,0 150,0 150,120 120,120 120,30 30,30 30,120 150,120 150,150 0,150" />
    <polygon points="60,60 210,60 210,150 90,150 90,120 180,120 180,90 90,90 90,210 60,210" />
    <polygon points="120,120 270,120 270,150 150,150 150,240 240,240 240,210 180,210 180,180 270,180 270,270 120,270" />
</svg>
