<svg role="img" aria-hidden="true" focusable="false" viewBox="0 0 270 270" width="100%" height="100%"
	stroke="none" stroke-width="0" xmlns="http://www.w3.org/2000/svg">

	<!--<polygon points="0,0 15,0 15,15 12,15 12,3 9,3 9,15 6,15 6,3 3,3 3,15 0,15" fill="#606c76"/>--><!--M-->
	<!--<polygon points="0,0 15,0 15,3 3,3 3,6 15,6 15,9 3,9 3,12 15,12 15,15 0,15" fill="#606c76"/>--><!--E-->

	<!--<polygon points="0,0 15,0 15,15 0,15 0,3 3,3 3,12 12,12 12,3 0,3" fill="#606c76"/>-->
	<polygon points="36,0 39,0 39,12 51,12 51,15 36,15" fill="#606c76"/>
	<polygon points="18,0 27,0 27,12 30,12 30,0 33,0 33,15 24,15 24,3 21,3 21,15 18,15" fill="#606c76"/>
	<polygon points="54,0 57,0 57,6 66,6 66,0 69,0 69,9 63,9 63,15 60,15 60,9 54,9" fill="#606c76"/>

	<polygon points="75,0 90,0 90,9 78,9 78,6 87,6 87,3 78,3 78,15 75,15" fill="#606c76"/>
	<polygon points="93,0 108,0 108,9 102,9 102,15 99,15 99,9 96,9 96,6 105,6 105,3 96,3 96,15 93,15" fill="#606c76"/>
	<polygon points="111,0 126,0 126,3 114,3 114,6 126,6 126,9 114,9 114,12 126,12 126,15 111,15" fill="#606c76"/>
	<polygon points="129,0 144,0 144,15 141,15 141,3 138,3 138,15 135,15 135,3 132,3 132,15 129,15" fill="#606c76"/>


</svg>