<svg  xmlns="http://www.w3.org/2000/svg" xmlns:xlink="http://www.w3.org/1999/xlink">
  <polygon points="0,0 150,0 150,60 120,60 120,30 30,30 30,120 60,120 60,150 0,150" style="fill:black;stroke-width:1;stroke:black" />
  <polygon points="60,210 60,60 210,60 210,150 90,150 90,120 180,120 180,90 90,90 90,210" style="fill:black;stroke-width:1;stroke:black" />
  <polygon points="120,150 120,270 270,270 270,180 180,180 180,210 240,210 240,240 150,240 150,150" style="fill:black;stroke-width:1;stroke:black" />
  <polygon points="210,120 270,120 270,150 210,150" style="fill:black;stroke-width:1;stroke:black" />
  <circle cx="105" cy="195" r="7.5" style="fill:black;stroke-width:1;stroke:black" />
</svg>