<svg xmlns="http://www.w3.org/2000/svg" width="256" height="414" viewBox="0 0 256 414">
<g>
<path d="M 50.26,398.77 L 46.02,393.63 L 51.76,388.57 L 56.75,384.17 L 66.27,375.33 L 70.96,370.90 L 79.88,361.99 L 84.26,357.52 L 92.58,348.56 L 96.66,344.06 L 104.37,335.04 L 108.15,330.53 L 115.24,321.46 L 118.71,316.92 L 125.20,307.81 L 128.36,303.25 L 134.22,294.10 L 137.08,289.52 L 142.32,280.34 L 144.86,275.75 L 149.48,266.55 L 151.71,261.95 L 155.70,252.73 L 157.61,248.12 L 160.97,238.88 L 162.57,234.26 L 165.29,225.02 L 166.58,220.40 L 168.66,211.16 L 169.63,206.54 L 171.07,197.31 L 171.71,192.69 L 172.52,183.46 L 172.99,169.64 L 172.99,165.09 L 172.46,156.03 L 172.11,151.52 L 170.91,142.68 L 170.24,138.31 L 168.40,129.91 L 164.98,118.04 L 164.58,116.87 L 163.87,114.74 L 163.54,113.72 L 163.00,112.01 L 162.76,111.23 L 162.44,110.14 L 162.30,109.41 L 162.32,109.38 L 162.86,109.10 L 163.20,108.92 L 164.24,108.38 L 164.82,108.09 L 166.24,107.37 L 168.64,106.16 L 174.79,103.08 L 176.85,108.79 L 178.22,112.57 L 180.41,119.96 L 181.43,123.67 L 183.01,131.36 L 183.37,133.32 L 184.00,137.41 L 184.30,139.48 L 184.81,143.83 L 185.05,146.05 L 185.45,150.75 L 185.95,158.25 L 186.22,163.14 L 186.25,172.94 L 186.19,177.85 L 185.54,187.67 L 185.13,192.58 L 183.81,202.40 L 183.07,207.32 L 181.08,217.15 L 180.00,222.06 L 177.34,231.88 L 175.93,236.79 L 172.62,246.58 L 170.88,251.48 L 166.90,261.25 L 164.84,266.13 L 160.21,275.87 L 157.82,280.73 L 152.55,290.41 L 149.84,295.25 L 143.92,304.88 L 140.89,309.69 L 134.34,319.25 L 130.99,324.02 L 123.80,333.51 L 120.13,338.24 L 112.32,347.65 L 108.34,352.34 L 99.91,361.65 L 95.61,366.29 L 86.56,375.50 L 72.29,389.18 L 70.16,391.15 L 66.18,394.76 L 65.22,395.62 L 63.44,397.21 L 62.57,397.98 L 61.00,399.36 L 60.25,400.01 L 58.93,401.14 L 58.31,401.67 L 57.31,402.50 L 56.84,402.87 L 56.19,403.37 L 55.64,403.71 L 55.48,403.74 L 54.86,403.38 L 54.51,403.15 L 53.59,402.34 L 53.10,401.90 L 52.00,400.75 L 51.43,400.15 M 124.23,389.89 L 123.46,389.76 L 121.61,389.32 L 120.64,389.08 L 118.49,388.46 L 116.30,387.79 L 111.64,386.12 L 110.50,385.69 L 108.31,384.80 L 107.25,384.36 L 105.33,383.50 L 104.42,383.07 L 102.90,382.28 L 101.23,381.22 L 98.96,379.46 L 101.61,374.15 L 102.33,372.71 L 104.13,369.86 L 105.09,368.44 L 107.31,365.66 L 108.47,364.29 L 111.05,361.64 L 112.38,360.35 L 115.23,357.90 L 116.69,356.71 L 119.74,354.53 L 121.29,353.48 L 124.47,351.62 L 126.07,350.73 L 129.30,349.25 L 134.12,347.54 L 136.27,346.92 L 141.01,345.98 L 143.42,345.56 L 148.43,345.03 L 150.94,344.82 L 155.89,344.72 L 162.88,345.10 L 163.81,345.21 L 165.94,345.55 L 167.04,345.75 L 169.39,346.24 L 171.78,346.75 L 176.61,348.05 L 177.78,348.38 L 179.94,349.06 L 180.98,349.39 L 182.78,350.05 L 183.62,350.37 L 184.91,350.96 L 186.12,351.72 L 186.27,351.87 L 186.32,352.50 L 186.31,352.87 L 186.05,353.88 L 185.89,354.43 L 185.37,355.75 L 185.08,356.44 L 184.32,358.00 L 183.52,359.60 L 181.36,363.22 L 177.59,368.70 L 176.30,370.41 L 173.03,373.89 L 171.31,375.61 L 167.49,378.87 L 165.55,380.45 L 161.60,383.15 L 160.63,383.78 L 158.73,384.87 L 156.00,386.21 L 155.33,386.50 L 153.70,387.09 L 152.85,387.38 L 150.91,387.94 L 148.93,388.50 L 144.53,389.48 L 142.33,389.93 L 138.17,390.55 L 137.18,390.67 L 135.41,390.82 L 133.16,390.88 L 132.66,390.87 L 131.32,390.77 L 130.62,390.71 L 129.03,390.54 L 127.41,390.36 M 63.18,357.53 L 61.69,355.95 L 58.98,352.49 L 57.67,350.72 L 55.31,346.97 L 54.19,345.07 L 52.23,341.10 L 51.30,339.09 L 49.76,334.99 L 49.05,332.94 L 47.96,328.79 L 47.48,326.71 L 46.87,322.60 L 46.63,320.55 L 46.52,316.55 L 46.98,310.77 L 47.22,309.15 L 47.92,305.97 L 48.29,304.38 L 49.24,301.28 L 50.24,298.20 L 52.97,292.37 L 53.71,290.94 L 55.36,288.18 L 56.21,286.82 L 58.08,284.21 L 59.04,282.93 L 61.11,280.48 L 64.46,277.00 L 69.17,272.50 L 73.57,277.45 L 74.87,278.92 L 77.44,282.48 L 78.71,284.35 L 81.11,288.55 L 82.28,290.71 L 84.41,295.33 L 87.16,302.50 L 87.65,303.97 L 88.35,306.57 L 88.66,307.87 L 89.06,310.60 L 89.15,311.33 L 89.27,312.91 L 89.33,313.74 L 89.41,315.58 L 89.44,316.55 L 89.47,318.74 L 89.49,322.50 L 89.49,323.87 L 89.48,326.26 L 89.46,327.40 L 89.41,329.38 L 89.38,330.33 L 89.29,331.98 L 89.23,332.78 L 89.09,334.19 L 88.93,335.55 L 88.42,337.86 L 87.29,341.35 L 86.83,342.57 L 85.66,345.12 L 85.05,346.41 L 83.63,349.00 L 82.18,351.58 L 78.92,356.33 L 78.11,357.44 L 76.51,359.40 L 75.73,360.33 L 74.25,361.83 L 73.54,362.51 L 72.28,363.43 L 70.73,364.00 L 70.52,364.00 L 69.67,363.49 L 69.18,363.16 L 67.89,362.10 L 67.21,361.51 L 65.65,360.04 L 64.85,359.27 M 162.32,330.08 L 160.35,329.54 L 156.34,328.23 L 155.40,327.90 L 153.80,327.29 L 152.02,326.51 L 151.12,326.04 L 150.02,325.18 L 149.80,324.94 L 149.56,324.38 L 149.46,324.08 L 149.47,323.34 L 149.51,322.94 L 149.78,321.93 L 149.94,321.38 L 150.48,320.03 L 150.78,319.30 L 151.59,317.52 L 153.12,314.28 L 153.87,312.71 L 155.67,309.68 L 156.61,308.19 L 158.78,305.31 L 159.91,303.90 L 162.41,301.21 L 163.70,299.89 L 166.49,297.42 L 167.93,296.22 L 170.98,294.00 L 172.54,292.92 L 175.82,290.98 L 177.49,290.04 L 180.96,288.41 L 186.34,286.34 L 188.13,285.75 L 191.08,284.92 L 192.52,284.56 L 195.41,284.10 L 196.17,284.00 L 197.83,283.85 L 198.69,283.79 L 200.63,283.70 L 201.64,283.66 L 203.96,283.61 L 208.00,283.57 L 209.28,283.57 L 211.58,283.58 L 212.69,283.58 L 214.70,283.63 L 216.64,283.68 L 219.81,283.90 L 221.30,284.03 L 223.80,284.42 L 227.17,285.25 L 232.84,287.01 L 231.82,290.75 L 231.57,291.68 L 230.84,293.72 L 230.45,294.76 L 229.48,296.96 L 228.46,299.19 L 225.86,303.82 L 224.50,306.11 L 221.50,310.41 L 220.74,311.44 L 219.21,313.32 L 216.93,315.83 L 215.59,317.19 L 212.92,319.60 L 211.58,320.76 L 208.90,322.79 L 207.55,323.76 L 204.79,325.43 L 203.40,326.22 L 200.52,327.55 L 199.06,328.17 L 195.99,329.19 L 194.42,329.66 L 191.11,330.38 L 189.42,330.71 L 185.81,331.18 L 180.00,331.60 L 177.93,331.68 L 174.54,331.72 L 172.94,331.71 L 170.18,331.54 L 168.84,331.42 L 166.31,331.01 L 165.03,330.77 M 112.40,300.41 L 109.47,298.86 L 104.24,295.38 L 101.72,293.58 L 97.27,289.54 L 95.14,287.45 L 91.42,282.79 L 86.60,275.07 L 85.79,273.52 L 84.39,270.47 L 83.74,268.95 L 82.65,265.94 L 82.14,264.43 L 81.35,261.43 L 80.99,259.93 L 80.50,256.90 L 80.30,255.38 L 80.10,252.31 L 80.04,250.76 L 80.13,247.60 L 80.21,246.01 L 80.59,242.74 L 81.48,237.69 L 81.66,236.84 L 82.23,234.82 L 82.55,233.77 L 83.34,231.45 L 84.16,229.11 L 86.14,224.32 L 86.63,223.17 L 87.60,221.08 L 88.08,220.09 L 88.95,218.44 L 89.37,217.69 L 90.07,216.66 L 90.84,216.00 L 90.95,216.00 L 91.51,216.24 L 91.85,216.39 L 92.78,216.89 L 96.36,219.02 L 97.83,219.95 L 100.71,222.07 L 102.13,223.17 L 104.90,225.60 L 106.27,226.85 L 108.90,229.55 L 110.19,230.93 L 112.64,233.86 L 113.85,235.35 L 116.09,238.46 L 117.18,240.03 L 119.18,243.28 L 120.15,244.92 L 121.87,248.28 L 124.11,253.37 L 125.04,255.78 L 126.43,261.15 L 127.04,263.89 L 127.73,269.54 L 127.99,272.36 L 127.95,277.79 L 127.89,279.11 L 127.63,281.62 L 127.01,285.13 L 126.61,286.87 L 125.25,290.86 L 124.51,292.87 L 122.82,296.68 L 122.40,297.58 L 121.57,299.18 L 121.16,299.95 L 120.39,301.19 L 120.02,301.75 L 119.37,302.52 L 118.60,303.00 L 118.42,303.00 L 117.71,302.80 L 117.30,302.66 L 116.24,302.24 L 115.12,301.77 M 180.00,267.33 L 180.00,265.86 L 180.24,262.86 L 180.40,261.35 L 180.96,258.31 L 181.27,256.79 L 182.12,253.76 L 182.58,252.24 L 183.70,249.25 L 184.30,247.76 L 185.68,244.85 L 186.41,243.40 L 188.04,240.62 L 188.88,239.24 L 190.74,236.62 L 193.77,232.91 L 195.16,231.36 L 198.36,228.42 L 200.02,226.98 L 203.68,224.28 L 205.56,222.97 L 209.56,220.57 L 211.60,219.41 L 215.85,217.36 L 217.99,216.38 L 222.37,214.73 L 224.57,213.96 L 228.97,212.75 L 231.16,212.21 L 235.48,211.49 L 241.75,211.04 L 242.62,211.03 L 244.03,211.02 L 244.68,211.02 L 245.71,211.08 L 246.18,211.13 L 246.88,211.34 L 247.19,211.47 L 247.62,211.90 L 247.81,212.15 L 248.03,212.88 L 248.11,213.29 L 248.18,214.40 L 248.19,215.01 L 248.16,216.57 L 248.06,219.50 L 248.01,221.05 L 247.63,224.27 L 247.40,225.89 L 246.69,229.21 L 246.30,230.87 L 245.30,234.19 L 244.76,235.85 L 243.49,239.10 L 242.83,240.71 L 241.33,243.81 L 240.56,245.33 L 238.86,248.20 L 237.99,249.60 L 236.14,252.15 L 233.20,255.54 L 231.78,256.98 L 228.90,259.56 L 227.45,260.80 L 224.47,263.00 L 222.96,264.05 L 219.85,265.87 L 218.27,266.74 L 214.98,268.22 L 213.30,268.92 L 209.79,270.06 L 208.00,270.59 L 204.23,271.42 L 202.31,271.79 L 198.24,272.32 L 191.75,272.79 L 180.00,273.25 L 180.00,267.33 M 143.14,239.45 L 140.95,238.46 L 136.77,236.09 L 134.72,234.85 L 130.85,232.04 L 128.95,230.59 L 125.44,227.40 L 123.73,225.76 L 120.62,222.24 L 119.12,220.45 L 116.47,216.68 L 115.22,214.77 L 113.09,210.81 L 112.09,208.81 L 110.53,204.72 L 108.89,198.50 L 108.69,197.43 L 108.41,195.10 L 108.30,193.91 L 108.19,191.39 L 108.11,188.83 L 108.43,183.41 L 108.66,180.69 L 109.55,175.35 L 111.47,168.00 L 111.95,166.61 L 112.72,164.35 L 113.08,163.30 L 113.71,161.68 L 114.01,160.95 L 114.59,159.92 L 114.88,159.47 L 115.51,158.95 L 115.84,158.76 L 116.63,158.71 L 117.05,158.74 L 118.09,159.09 L 118.65,159.31 L 120.04,160.01 L 122.64,161.38 L 124.90,162.57 L 129.52,165.69 L 131.82,167.36 L 136.30,171.23 L 138.49,173.23 L 142.49,177.54 L 147.62,184.18 L 149.07,186.36 L 151.54,190.70 L 152.70,192.87 L 154.60,197.21 L 155.47,199.37 L 156.80,203.70 L 157.39,205.86 L 158.15,210.18 L 158.46,212.35 L 158.65,216.67 L 158.67,218.84 L 158.29,223.18 L 158.03,225.35 L 157.09,229.70 L 155.03,236.25 L 154.71,237.09 L 154.13,238.47 L 153.84,239.11 L 153.27,240.11 L 152.98,240.57 L 152.35,241.21 L 152.02,241.49 L 151.26,241.79 L 150.85,241.89 L 149.89,241.87 L 149.38,241.82 L 148.16,241.49 L 147.50,241.29 L 145.94,240.67 L 145.11,240.33 M 199.26,206.22 L 199.16,205.85 L 198.97,204.34 L 198.88,203.48 L 198.73,201.22 L 198.67,200.02 L 198.58,197.29 L 198.54,193.00 L 198.54,190.94 L 198.65,187.60 L 198.73,186.03 L 199.02,183.38 L 199.19,182.11 L 199.70,179.80 L 200.78,176.29 L 201.48,174.33 L 203.20,170.53 L 204.11,168.66 L 206.23,165.03 L 207.35,163.24 L 209.86,159.81 L 211.17,158.13 L 214.04,154.92 L 215.53,153.34 L 218.75,150.38 L 220.40,148.93 L 223.94,146.24 L 225.75,144.93 L 229.59,142.53 L 235.65,139.29 L 237.55,138.38 L 241.54,136.75 L 243.51,135.98 L 247.13,134.79 L 247.98,134.53 L 249.49,134.13 L 250.22,133.94 L 251.41,133.72 L 251.96,133.63 L 252.76,133.61 L 253.40,133.84 L 253.53,134.04 L 253.80,134.88 L 253.94,135.36 L 254.23,136.66 L 254.38,137.35 L 254.66,138.99 L 254.81,139.84 L 255.07,141.68 L 255.34,143.56 L 255.73,147.44 L 255.81,148.37 L 255.92,150.12 L 255.99,152.43 L 255.98,155.06 L 255.40,160.22 L 255.03,162.78 L 253.74,167.76 L 253.02,170.22 L 251.07,174.94 L 250.01,177.26 L 247.44,181.66 L 246.08,183.81 L 242.93,187.82 L 241.29,189.76 L 237.60,193.31 L 235.69,195.01 L 231.51,198.03 L 224.74,201.87 L 222.87,202.77 L 219.55,204.18 L 217.92,204.83 L 214.72,205.89 L 213.09,206.38 L 209.53,207.22 L 203.26,208.40 L 202.54,208.52 L 201.52,208.61 L 201.06,208.61 L 200.44,208.40 L 200.16,208.25 L 199.77,207.65 L 199.59,207.29 M 148.44,159.50 L 145.88,158.81 L 140.99,156.99 L 138.59,156.01 L 134.04,153.65 L 131.81,152.40 L 127.65,149.53 L 125.62,148.03 L 121.89,144.70 L 120.08,142.97 L 116.82,139.22 L 115.26,137.29 L 112.52,133.16 L 111.22,131.05 L 109.05,126.59 L 106.47,119.56 L 106.21,118.67 L 105.81,116.35 L 105.63,115.12 L 105.38,112.27 L 105.27,110.81 L 105.17,107.64 L 105.14,106.04 L 105.18,102.74 L 105.22,101.10 L 105.40,97.88 L 105.51,96.30 L 105.83,93.36 L 106.00,91.94 L 106.45,89.46 L 107.25,86.50 L 107.47,85.92 L 107.90,84.97 L 108.12,84.53 L 108.60,83.85 L 108.85,83.54 L 109.43,83.13 L 109.74,82.95 L 110.48,82.79 L 110.87,82.74 L 111.82,82.83 L 112.33,82.91 L 113.55,83.24 L 114.20,83.44 L 115.75,84.01 L 118.50,85.12 L 119.98,85.75 L 122.98,87.26 L 124.48,88.06 L 127.48,89.88 L 128.97,90.83 L 131.92,92.93 L 133.38,94.01 L 136.23,96.35 L 139.04,98.73 L 144.18,104.04 L 145.41,105.40 L 147.69,108.20 L 150.78,112.49 L 151.87,114.13 L 153.76,117.68 L 154.65,119.50 L 156.14,123.33 L 156.83,125.27 L 157.91,129.28 L 158.40,131.29 L 159.06,135.39 L 159.34,137.43 L 159.56,141.51 L 159.62,143.54 L 159.40,147.51 L 159.23,149.47 L 158.55,153.22 L 156.99,158.52 L 156.72,159.22 L 156.19,160.13 L 155.88,160.50 L 154.94,160.77 L 154.65,160.81 L 153.94,160.76 L 153.55,160.72 L 152.58,160.54 L 152.05,160.43 L 150.77,160.12 L 150.09,159.94 M 196.59,140.42 L 195.29,137.76 L 193.39,132.20 L 192.56,129.39 L 191.61,123.61 L 191.26,120.70 L 191.29,114.80 L 192.43,105.92 L 193.11,102.73 L 195.20,96.50 L 196.37,93.42 L 199.42,87.49 L 201.05,84.58 L 204.99,79.04 L 211.85,71.26 L 212.46,70.66 L 213.90,69.35 L 214.64,68.69 L 216.27,67.32 L 217.92,65.94 L 221.36,63.33 L 222.19,62.71 L 223.76,61.61 L 224.51,61.09 L 225.84,60.24 L 226.47,59.85 L 227.46,59.33 L 228.44,59.00 L 228.58,59.00 L 229.09,59.61 L 229.38,60.00 L 230.11,61.27 L 230.50,61.97 L 231.39,63.72 L 231.84,64.64 L 232.80,66.70 L 233.76,68.81 L 235.55,73.22 L 235.97,74.28 L 236.66,76.23 L 237.43,78.73 L 237.67,79.66 L 238.07,81.78 L 238.25,82.88 L 238.53,85.26 L 238.78,87.69 L 238.93,92.89 L 238.95,95.48 L 238.63,100.41 L 238.52,101.59 L 238.21,103.76 L 237.61,106.63 L 237.01,108.88 L 235.29,113.27 L 234.35,115.45 L 231.93,119.70 L 230.64,121.81 L 227.52,125.94 L 222.04,132.00 L 220.30,133.74 L 216.27,137.12 L 214.23,138.76 L 210.12,141.61 L 209.13,142.26 L 207.23,143.40 L 206.30,143.94 L 204.62,144.79 L 203.81,145.17 L 202.42,145.68 L 200.77,146.00 L 200.57,146.00 L 199.99,145.56 L 199.68,145.28 L 198.95,144.36 L 198.57,143.86 L 197.77,142.59 L 197.37,141.92 M 162.24,90.94 L 161.29,90.57 L 159.08,89.34 L 157.92,88.65 L 155.39,86.86 L 154.10,85.90 L 151.37,83.63 L 147.20,79.79 L 146.02,78.63 L 143.79,75.94 L 142.70,74.54 L 140.68,71.43 L 139.69,69.82 L 137.91,66.37 L 137.05,64.61 L 135.54,60.91 L 134.82,59.04 L 133.61,55.18 L 133.05,53.24 L 132.19,49.31 L 131.80,47.34 L 131.31,43.43 L 131.03,37.66 L 131.04,36.38 L 131.25,33.50 L 131.39,32.03 L 131.82,28.90 L 132.30,25.72 L 133.75,19.25 L 134.15,17.67 L 135.01,14.67 L 135.45,13.20 L 136.38,10.56 L 136.86,9.29 L 137.82,7.15 L 139.25,4.68 L 139.54,4.28 L 140.10,3.85 L 140.42,3.70 L 141.30,3.82 L 141.56,3.89 L 142.21,4.15 L 142.55,4.30 L 143.40,4.73 L 143.85,4.97 L 144.95,5.59 L 146.93,6.73 L 148.66,7.75 L 151.90,9.94 L 153.49,11.05 L 156.44,13.44 L 157.89,14.66 L 160.55,17.23 L 161.84,18.54 L 164.21,21.28 L 165.35,22.67 L 167.41,25.56 L 168.40,27.03 L 170.15,30.06 L 170.99,31.59 L 172.43,34.74 L 173.11,36.33 L 174.23,39.59 L 174.75,41.23 L 175.54,44.58 L 175.90,46.27 L 176.37,49.69 L 176.56,51.41 L 176.69,54.89 L 176.72,56.64 L 176.51,60.17 L 176.37,61.93 L 175.82,65.49 L 175.50,67.27 L 174.61,70.83 L 174.12,72.62 L 172.87,76.18 L 170.59,81.50 L 170.02,82.67 L 169.05,84.64 L 168.59,85.57 L 167.78,87.09 L 167.39,87.79 L 166.71,88.90 L 166.38,89.41 L 165.78,90.15 L 165.49,90.48 L 164.93,90.91 L 164.66,91.09 L 164.10,91.24 L 163.54,91.34 Z" fill="rgba(96,108,118,1)"/>
</g>
</svg>