<svg xmlns="http://www.w3.org/2000/svg" width="256" height="414" viewBox="0 0 256 414">
<g>
<path d="M 191.50,400.79 L 187.05,396.82 L 178.48,388.77 L 174.25,384.73 L 166.14,376.56 L 162.14,372.46 L 154.48,364.18 L 150.71,360.03 L 143.53,351.65 L 139.99,347.45 L 133.29,338.99 L 129.99,334.75 L 123.77,326.23 L 120.72,321.96 L 114.99,313.37 L 112.18,309.08 L 106.95,300.45 L 104.40,296.13 L 99.68,287.48 L 97.38,283.15 L 93.18,274.48 L 91.14,270.14 L 87.46,261.47 L 85.68,257.13 L 82.53,248.47 L 81.02,244.14 L 78.41,235.51 L 77.18,231.19 L 75.12,222.59 L 74.15,218.30 L 72.65,209.75 L 71.02,197.00 L 70.87,195.42 L 70.57,192.26 L 70.43,190.71 L 70.16,187.85 L 70.04,186.49 L 69.83,184.27 L 69.78,183.77 L 69.71,182.94 L 69.62,182.00 L 69.58,181.52 L 69.53,180.32 L 69.51,179.69 L 69.49,178.22 L 69.49,176.69 L 69.59,172.96 L 69.65,171.02 L 69.87,166.69 L 70.00,164.48 L 70.32,159.86 L 70.49,157.54 L 70.89,152.93 L 71.09,150.65 L 71.55,146.36 L 71.78,144.28 L 72.26,140.62 L 73.00,136.16 L 73.53,133.55 L 74.89,127.89 L 75.59,125.07 L 77.11,119.69 L 77.49,118.40 L 78.22,116.05 L 78.58,114.91 L 79.26,112.94 L 79.59,112.01 L 80.18,110.55 L 80.94,109.04 L 81.14,108.73 L 81.65,108.39 L 81.94,108.28 L 82.82,108.37 L 83.33,108.48 L 84.82,109.05 L 85.24,109.23 L 86.24,109.67 L 88.00,110.50 L 89.10,111.03 L 90.79,111.93 L 91.55,112.36 L 92.60,113.11 L 93.04,113.46 L 93.50,114.09 L 93.60,114.96 L 93.52,115.17 L 93.19,116.13 L 93.00,116.69 L 92.49,118.18 L 92.22,118.98 L 91.58,120.83 L 90.57,123.77 L 89.33,127.37 L 87.32,135.06 L 86.39,138.97 L 84.99,147.20 L 84.37,151.37 L 83.59,160.03 L 83.28,164.40 L 83.11,173.38 L 83.11,177.90 L 83.56,187.09 L 83.87,191.70 L 84.94,200.99 L 85.55,205.64 L 87.23,214.93 L 90.46,228.72 L 91.27,231.72 L 93.20,237.91 L 94.22,241.04 L 96.55,247.42 L 97.76,250.63 L 100.45,257.15 L 101.84,260.42 L 104.87,267.02 L 106.43,270.32 L 109.77,276.93 L 111.48,280.24 L 115.10,286.81 L 116.95,290.09 L 120.83,296.56 L 126.91,306.10 L 129.49,309.99 L 134.73,317.47 L 137.36,321.17 L 142.78,328.36 L 145.53,331.93 L 151.25,338.96 L 154.15,342.46 L 160.27,349.44 L 163.39,352.93 L 170.02,359.97 L 173.41,363.51 L 180.65,370.75 L 184.36,374.40 L 192.33,381.95 L 205.21,393.74 L 209.92,397.97 L 205.85,402.73 L 204.73,404.04 L 202.79,406.29 L 202.36,406.79 L 201.71,407.53 L 201.14,408.16 L 201.10,408.21 L 200.83,408.13 L 200.67,408.07 L 200.18,407.79 L 199.65,407.46 L 198.04,406.27 L 197.17,405.60 L 195.04,403.86 L 193.94,402.93 M 109.16,393.41 L 106.86,392.91 L 102.39,391.37 L 100.18,390.51 L 95.90,388.26 L 93.79,387.05 L 89.73,384.11 L 83.87,378.92 L 82.46,377.50 L 79.56,374.06 L 78.12,372.28 L 75.41,368.48 L 74.11,366.57 L 71.90,362.85 L 71.39,361.95 L 70.53,360.25 L 69.51,357.90 L 69.42,357.66 L 69.47,357.19 L 69.53,356.94 L 69.87,356.45 L 70.27,355.96 L 71.83,354.95 L 72.72,354.45 L 75.11,353.46 L 76.39,352.98 L 79.43,352.08 L 81.01,351.64 L 84.52,350.86 L 86.31,350.49 L 90.09,349.90 L 92.00,349.62 L 95.87,349.25 L 101.59,349.02 L 103.79,349.01 L 108.06,349.27 L 110.17,349.45 L 114.24,350.07 L 116.25,350.42 L 120.12,351.39 L 122.03,351.92 L 125.71,353.25 L 127.52,353.96 L 130.99,355.64 L 132.70,356.53 L 135.97,358.56 L 137.58,359.63 L 140.64,362.01 L 145.00,365.99 L 146.77,367.77 L 149.93,371.61 L 151.42,373.53 L 153.76,377.18 L 154.28,378.06 L 155.10,379.66 L 155.47,380.44 L 155.96,381.79 L 156.16,382.42 L 156.28,383.44 L 155.98,384.52 L 155.76,384.79 L 154.82,385.47 L 154.29,385.82 L 152.82,386.63 L 152.04,387.05 L 150.18,387.93 L 149.22,388.37 L 147.10,389.28 L 144.94,390.17 L 140.41,391.79 L 139.31,392.16 L 137.21,392.79 L 134.35,393.51 L 132.26,393.96 L 128.07,394.50 L 125.97,394.72 L 121.77,394.82 L 119.67,394.81 L 115.47,394.45 L 113.37,394.22 M 179.54,363.75 L 178.12,362.14 L 175.41,358.29 L 174.09,356.29 L 171.72,351.97 L 170.60,349.80 L 168.79,345.43 L 166.95,339.26 L 166.73,338.23 L 166.43,335.80 L 166.30,334.53 L 166.16,331.73 L 166.06,328.86 L 166.31,322.59 L 166.51,319.46 L 167.30,313.48 L 167.53,312.05 L 168.07,309.44 L 169.02,306.01 L 169.73,303.91 L 171.12,300.29 L 171.82,298.55 L 173.36,295.36 L 174.17,293.78 L 176.06,290.62 L 179.53,285.45 L 180.35,284.29 L 181.71,282.40 L 182.35,281.53 L 183.43,280.15 L 183.94,279.53 L 184.80,278.64 L 185.22,278.25 L 185.95,277.80 L 186.31,277.63 L 186.99,277.58 L 187.33,277.61 L 188.04,277.93 L 188.41,278.13 L 189.22,278.79 L 190.64,280.09 L 191.25,280.68 L 192.55,282.07 L 193.21,282.80 L 194.58,284.43 L 195.96,286.10 L 198.70,289.83 L 200.03,291.72 L 202.35,295.43 L 202.89,296.33 L 203.82,298.03 L 204.93,300.34 L 205.21,300.99 L 205.84,302.80 L 206.17,303.77 L 206.83,306.02 L 208.57,313.05 L 208.91,314.71 L 209.34,317.37 L 209.53,318.62 L 209.67,320.82 L 209.71,321.90 L 209.57,324.07 L 209.06,327.78 L 208.75,329.62 L 208.02,333.06 L 207.64,334.74 L 206.76,337.90 L 206.29,339.45 L 205.22,342.39 L 204.66,343.83 L 203.38,346.59 L 202.71,347.96 L 201.19,350.60 L 200.40,351.91 L 198.62,354.48 L 197.70,355.77 L 195.63,358.33 L 192.17,362.21 L 191.29,363.14 L 189.62,364.84 L 188.81,365.66 L 187.41,367.00 L 186.75,367.62 L 185.77,368.46 L 184.96,369.00 L 184.85,369.00 L 184.28,368.59 L 183.95,368.32 L 183.03,367.46 L 182.54,366.98 L 181.39,365.79 L 180.80,365.16 M 62.50,334.11 L 60.87,333.64 L 57.78,332.53 L 56.26,331.96 L 53.37,330.63 L 51.95,329.95 L 49.25,328.40 L 47.92,327.59 L 45.39,325.80 L 44.15,324.88 L 41.78,322.84 L 40.61,321.79 L 38.38,319.49 L 37.29,318.31 L 35.19,315.74 L 32.18,311.57 L 30.80,309.51 L 28.34,305.03 L 27.18,302.80 L 25.39,298.59 L 25.01,297.59 L 24.41,295.78 L 24.15,294.92 L 23.83,293.47 L 23.72,292.80 L 23.72,291.80 L 24.13,290.92 L 24.49,290.70 L 25.42,290.28 L 25.92,290.08 L 27.10,289.71 L 28.33,289.35 L 31.43,288.76 L 33.06,288.49 L 36.75,288.09 L 38.65,287.91 L 42.69,287.70 L 44.73,287.62 L 48.87,287.61 L 50.92,287.63 L 54.89,287.84 L 56.84,287.97 L 60.40,288.40 L 65.00,289.30 L 67.15,289.88 L 71.30,291.32 L 73.34,292.09 L 77.26,293.88 L 79.19,294.81 L 82.83,296.92 L 84.62,298.02 L 87.96,300.42 L 89.58,301.65 L 92.57,304.32 L 94.02,305.68 L 96.62,308.58 L 97.87,310.05 L 100.05,313.15 L 102.80,318.00 L 103.44,319.32 L 104.47,321.53 L 104.94,322.56 L 105.66,324.27 L 105.98,325.07 L 106.38,326.36 L 106.54,326.96 L 106.63,327.92 L 106.63,328.37 L 106.41,329.08 L 106.26,329.41 L 105.72,329.96 L 105.42,330.22 L 104.57,330.69 L 102.96,331.40 L 101.46,332.00 L 98.24,333.03 L 96.59,333.51 L 93.15,334.30 L 89.66,335.03 L 82.41,335.77 L 80.61,335.89 L 77.04,335.94 L 75.27,335.94 L 71.84,335.73 L 70.15,335.59 L 66.95,335.12 L 65.38,334.85 M 133.59,302.18 L 132.76,300.53 L 131.37,297.06 L 130.72,295.30 L 129.70,291.65 L 129.24,289.80 L 128.61,286.02 L 128.34,284.13 L 128.08,280.29 L 128.00,278.36 L 128.13,274.52 L 128.24,272.60 L 128.75,268.81 L 129.06,266.93 L 129.96,263.25 L 131.75,257.93 L 132.46,256.16 L 134.01,252.78 L 134.80,251.12 L 136.52,247.95 L 138.29,244.82 L 142.35,239.16 L 144.47,236.42 L 149.26,231.50 L 157.32,224.91 L 158.28,224.24 L 160.09,223.00 L 160.95,222.42 L 162.45,221.44 L 163.14,221.00 L 164.15,220.39 L 164.95,220.00 L 165.07,220.00 L 165.47,220.44 L 165.70,220.72 L 166.28,221.65 L 166.60,222.17 L 167.31,223.48 L 167.68,224.18 L 168.48,225.78 L 169.29,227.44 L 170.94,231.18 L 173.06,236.61 L 173.40,237.58 L 173.99,239.76 L 174.27,240.89 L 174.74,243.32 L 175.17,245.80 L 175.67,251.09 L 175.84,253.72 L 175.78,258.73 L 175.72,259.93 L 175.50,262.13 L 174.99,265.06 L 174.28,268.01 L 172.17,273.72 L 171.00,276.53 L 168.04,281.89 L 166.46,284.51 L 162.73,289.36 L 156.36,295.92 L 155.69,296.50 L 154.13,297.74 L 153.33,298.36 L 151.56,299.62 L 149.76,300.88 L 145.99,303.21 L 145.06,303.76 L 143.31,304.73 L 142.46,305.18 L 140.93,305.93 L 140.20,306.26 L 138.99,306.72 L 137.67,307.00 L 137.43,307.00 L 136.83,306.64 L 136.52,306.41 L 135.81,305.64 L 135.44,305.21 L 134.69,304.11 L 134.32,303.53 M 58.50,277.04 L 56.53,276.79 L 52.71,276.05 L 50.82,275.65 L 47.18,274.61 L 45.39,274.05 L 41.95,272.72 L 40.25,272.02 L 37.01,270.41 L 35.42,269.57 L 32.40,267.69 L 30.92,266.73 L 28.13,264.60 L 26.76,263.51 L 24.21,261.15 L 22.97,259.94 L 20.67,257.36 L 19.55,256.04 L 17.52,253.24 L 16.53,251.82 L 14.78,248.83 L 13.93,247.32 L 12.46,244.14 L 11.76,242.54 L 10.58,239.20 L 10.04,237.51 L 9.17,234.02 L 8.78,232.25 L 8.24,228.62 L 8.01,226.78 L 7.80,223.02 L 7.87,217.25 L 7.90,216.75 L 8.09,216.06 L 8.22,215.76 L 8.75,215.38 L 9.07,215.22 L 10.14,215.07 L 12.54,215.00 L 14.60,215.00 L 19.24,215.54 L 21.63,215.90 L 26.70,217.09 L 29.26,217.76 L 34.44,219.51 L 42.00,222.70 L 42.99,223.17 L 44.75,224.06 L 45.61,224.50 L 47.14,225.34 L 48.63,226.18 L 51.22,227.93 L 52.50,228.86 L 55.08,231.08 L 55.74,231.69 L 57.17,233.05 L 59.52,235.39 L 60.97,236.85 L 63.56,239.74 L 64.80,241.17 L 66.99,244.03 L 68.03,245.46 L 69.83,248.32 L 70.68,249.75 L 72.11,252.64 L 72.77,254.09 L 73.84,257.04 L 74.33,258.53 L 75.05,261.58 L 75.37,263.11 L 75.77,266.28 L 76.00,271.21 L 76.00,271.92 L 75.99,273.10 L 75.99,273.65 L 75.95,274.52 L 75.90,275.33 L 75.63,276.25 L 75.44,276.61 L 74.77,276.90 L 73.12,277.00 L 72.33,277.00 L 70.25,277.12 L 67.38,277.40 L 66.98,277.45 L 65.79,277.49 L 65.14,277.50 L 63.58,277.46 L 61.97,277.39 M 101.42,241.61 L 100.71,240.05 L 99.57,236.84 L 99.04,235.22 L 98.28,231.91 L 97.94,230.25 L 97.54,226.87 L 97.38,225.17 L 97.34,221.74 L 97.36,220.02 L 97.66,216.56 L 97.85,214.83 L 98.49,211.36 L 98.85,209.63 L 99.82,206.19 L 100.34,204.47 L 101.62,201.08 L 102.30,199.38 L 103.89,196.05 L 104.72,194.40 L 106.61,191.16 L 107.59,189.55 L 109.77,186.43 L 110.89,184.88 L 113.35,181.90 L 114.61,180.42 L 117.34,177.60 L 118.73,176.21 L 121.72,173.57 L 123.24,172.28 L 126.48,169.86 L 131.61,166.48 L 133.19,165.52 L 136.18,164.02 L 136.86,163.71 L 137.96,163.27 L 139.07,163.00 L 139.32,163.00 L 139.88,163.32 L 140.17,163.53 L 140.78,164.25 L 141.09,164.65 L 141.74,165.72 L 142.06,166.29 L 142.73,167.67 L 143.39,169.12 L 144.70,172.80 L 146.48,179.17 L 147.04,181.55 L 147.71,186.26 L 147.97,188.61 L 148.04,193.23 L 148.00,195.53 L 147.48,200.03 L 147.14,202.27 L 146.03,206.64 L 145.40,208.81 L 143.71,213.02 L 142.80,215.10 L 140.53,219.14 L 139.33,221.13 L 136.50,224.96 L 131.62,230.45 L 129.90,232.18 L 125.90,235.50 L 123.85,237.12 L 119.48,240.03 L 117.28,241.41 L 112.94,243.67 L 111.87,244.18 L 109.80,245.03 L 106.86,246.04 L 106.13,246.25 L 105.11,246.42 L 104.64,246.45 L 103.93,246.06 L 103.58,245.78 L 102.85,244.58 L 102.65,244.22 L 102.21,243.31 L 101.97,242.81 M 49.00,212.31 L 48.35,212.20 L 46.83,211.85 L 46.03,211.66 L 44.28,211.16 L 42.48,210.63 L 38.55,209.25 L 36.58,208.53 L 32.79,206.95 L 31.89,206.55 L 30.22,205.77 L 28.01,204.62 L 27.02,204.06 L 24.95,202.69 L 23.91,201.96 L 21.79,200.30 L 19.67,198.58 L 15.55,194.58 L 13.56,192.52 L 10.10,188.27 L 9.30,187.21 L 7.91,185.15 L 6.23,182.21 L 5.07,179.87 L 3.25,175.02 L 2.43,172.57 L 1.27,167.54 L 0.78,165.00 L 0.30,159.82 L 0.34,151.95 L 0.51,149.55 L 1.08,144.99 L 1.23,143.95 L 1.55,142.25 L 2.00,140.51 L 2.23,139.88 L 2.66,139.05 L 2.89,138.69 L 3.45,138.32 L 3.78,138.18 L 4.71,138.17 L 6.77,138.47 L 7.28,138.57 L 8.73,138.95 L 9.51,139.18 L 11.32,139.76 L 17.02,141.89 L 19.24,142.82 L 23.56,145.05 L 25.69,146.23 L 29.79,148.92 L 31.80,150.31 L 35.61,153.39 L 37.48,154.97 L 40.94,158.38 L 42.63,160.12 L 45.70,163.79 L 47.17,165.66 L 49.78,169.54 L 51.02,171.50 L 53.10,175.52 L 55.58,181.66 L 55.84,182.42 L 56.28,184.42 L 56.48,185.48 L 56.83,187.94 L 57.15,190.48 L 57.49,196.18 L 57.55,197.61 L 57.58,200.39 L 57.58,201.76 L 57.49,204.31 L 57.43,205.54 L 57.21,207.68 L 56.73,210.25 L 56.53,210.95 L 56.04,211.90 L 55.74,212.30 L 54.82,212.71 L 54.28,212.86 L 52.63,212.81 L 52.16,212.77 L 51.02,212.62 L 50.42,212.54 M 98.89,162.25 L 98.75,161.87 L 98.40,160.71 L 98.23,160.08 L 97.85,158.55 L 96.84,153.50 L 96.43,151.01 L 96.28,145.93 L 96.30,143.37 L 96.99,138.21 L 97.43,135.63 L 98.91,130.50 L 99.74,127.95 L 101.96,122.94 L 103.17,120.46 L 106.09,115.66 L 107.64,113.30 L 111.23,108.81 L 113.10,106.62 L 117.29,102.54 L 124.22,96.98 L 125.11,96.36 L 127.18,95.06 L 128.24,94.40 L 130.55,93.09 L 132.89,91.80 L 137.66,89.49 L 138.81,88.96 L 140.94,88.05 L 141.97,87.63 L 143.73,87.00 L 144.56,86.72 L 145.81,86.44 L 146.95,86.47 L 147.17,86.60 L 147.62,87.42 L 147.85,87.90 L 148.31,89.33 L 148.54,90.10 L 148.99,92.00 L 149.21,93.00 L 149.62,95.24 L 150.02,97.55 L 150.61,102.63 L 151.00,109.90 L 151.00,113.02 L 150.25,119.06 L 149.75,122.03 L 148.04,127.73 L 147.07,130.52 L 144.46,135.80 L 143.05,138.38 L 139.61,143.17 L 137.78,145.49 L 133.55,149.72 L 131.34,151.76 L 126.39,155.35 L 123.82,157.06 L 118.20,159.94 L 109.07,163.39 L 108.13,163.67 L 106.52,164.11 L 105.76,164.31 L 104.48,164.60 L 103.88,164.73 L 102.87,164.85 L 102.40,164.90 L 101.63,164.86 L 100.90,164.78 L 99.95,164.09 L 99.52,163.66 M 48.50,147.29 L 47.34,146.70 L 44.89,145.18 L 43.65,144.37 L 41.11,142.47 L 38.55,140.49 L 33.56,135.81 L 32.35,134.61 L 30.08,132.14 L 28.98,130.91 L 26.99,128.44 L 26.04,127.22 L 24.43,124.85 L 22.55,121.50 L 21.99,120.32 L 21.03,118.16 L 20.57,117.11 L 19.80,115.15 L 19.07,113.23 L 18.10,109.66 L 17.69,107.87 L 17.24,104.11 L 17.16,103.13 L 17.06,101.03 L 17.01,97.59 L 17.02,94.92 L 17.35,90.20 L 17.58,87.91 L 18.44,83.62 L 18.95,81.49 L 20.45,77.19 L 23.54,70.22 L 27.13,62.95 L 31.21,65.22 L 31.95,65.64 L 33.67,66.80 L 34.56,67.43 L 36.50,68.96 L 38.48,70.55 L 42.68,74.42 L 44.76,76.42 L 48.61,80.53 L 49.51,81.54 L 51.11,83.49 L 53.13,86.19 L 54.27,87.87 L 56.31,91.31 L 57.29,93.05 L 59.01,96.57 L 59.82,98.34 L 61.20,101.92 L 61.84,103.71 L 62.88,107.30 L 63.35,109.10 L 64.03,112.69 L 64.32,114.48 L 64.64,118.02 L 64.76,119.79 L 64.71,123.27 L 64.21,128.38 L 63.90,130.41 L 62.97,134.51 L 62.46,136.53 L 61.26,140.32 L 60.63,142.14 L 59.28,145.23 L 58.94,145.94 L 58.26,147.17 L 57.24,148.67 L 55.50,150.84 L 48.50,147.29 M 88.32,91.75 L 87.95,91.17 L 87.04,89.43 L 86.56,88.49 L 85.53,86.25 L 82.61,79.00 L 81.97,77.17 L 80.97,73.36 L 80.52,71.44 L 79.92,67.51 L 79.67,65.54 L 79.46,61.56 L 79.41,59.57 L 79.59,55.61 L 79.72,53.64 L 80.28,49.77 L 80.61,47.85 L 81.55,44.15 L 82.06,42.32 L 83.37,38.86 L 85.74,34.00 L 87.20,31.48 L 90.77,26.66 L 92.66,24.31 L 96.94,19.98 L 99.15,17.90 L 103.92,14.27 L 111.39,9.84 L 112.07,9.51 L 113.18,8.98 L 113.71,8.75 L 114.56,8.44 L 114.96,8.32 L 115.63,8.29 L 115.95,8.31 L 116.50,8.60 L 116.77,8.79 L 117.28,9.45 L 117.53,9.83 L 118.07,10.92 L 118.34,11.52 L 118.97,13.08 L 120.10,16.00 L 120.42,16.83 L 121.04,18.72 L 121.34,19.70 L 121.93,21.82 L 122.50,23.98 L 123.47,28.67 L 123.92,31.02 L 124.54,35.60 L 124.67,36.71 L 124.85,38.79 L 124.97,41.64 L 124.98,43.59 L 124.70,47.53 L 124.52,49.50 L 123.87,53.44 L 123.50,55.40 L 122.49,59.28 L 121.95,61.21 L 120.61,64.96 L 119.91,66.82 L 118.27,70.38 L 117.42,72.13 L 115.50,75.44 L 114.51,77.06 L 112.33,80.05 L 108.81,84.11 L 107.58,85.35 L 104.40,88.06 L 102.75,89.41 L 99.31,91.91 L 98.47,92.49 L 96.87,93.53 L 96.09,94.02 L 94.70,94.82 L 94.04,95.19 L 92.95,95.68 L 91.76,95.99 L 91.66,95.99 L 91.26,95.66 L 91.04,95.44 L 90.45,94.75 L 89.82,93.98 Z" fill="rgba(96,108,118,1)"/>
</g>
</svg>